<svg xmlns="http://www.w3.org/2000/svg" xmlns:xlink="http://www.w3.org/1999/xlink" width="4000" zoomAndPan="magnify" viewBox="0 0 3000 2999.999989" height="4000" preserveAspectRatio="xMidYMid meet" version="1.0"><defs><g/><clipPath id="04849f825f"><path d="M 1031.933594 1404.214844 L 1226.953125 1404.214844 L 1226.953125 1599.238281 L 1031.933594 1599.238281 Z M 1031.933594 1404.214844 " clip-rule="nonzero"/></clipPath><clipPath id="ae486f9ea4"><path d="M 1076 1357 L 1176 1357 L 1176 1406 L 1076 1406 Z M 1076 1357 " clip-rule="nonzero"/></clipPath><clipPath id="3ccf52d4fd"><path d="M 1028.484375 1309.488281 L 1227.390625 1314.925781 L 1223.957031 1440.601562 L 1025.050781 1435.164062 Z M 1028.484375 1309.488281 " clip-rule="nonzero"/></clipPath><clipPath id="cebf9d47bd"><path d="M 1227.332031 1314.925781 L 1028.421875 1309.484375 L 1024.988281 1435.164062 L 1223.894531 1440.601562 Z M 1227.332031 1314.925781 " clip-rule="nonzero"/></clipPath><clipPath id="082ae111ae"><path d="M 1227.332031 1314.925781 L 1028.421875 1309.484375 L 1024.988281 1435.164062 L 1223.894531 1440.601562 Z M 1227.332031 1314.925781 " clip-rule="nonzero"/></clipPath><clipPath id="ea8b5d7cf9"><path d="M 1027 1312 L 1227 1312 L 1227 1383 L 1027 1383 Z M 1027 1312 " clip-rule="nonzero"/></clipPath><clipPath id="88f973a736"><path d="M 1028.484375 1309.488281 L 1227.390625 1314.925781 L 1223.957031 1440.601562 L 1025.050781 1435.164062 Z M 1028.484375 1309.488281 " clip-rule="nonzero"/></clipPath><clipPath id="1d92fc8d45"><path d="M 1227.332031 1314.925781 L 1028.421875 1309.484375 L 1024.988281 1435.164062 L 1223.894531 1440.601562 Z M 1227.332031 1314.925781 " clip-rule="nonzero"/></clipPath><clipPath id="ba50572eac"><path d="M 1227.332031 1314.925781 L 1028.421875 1309.484375 L 1024.988281 1435.164062 L 1223.894531 1440.601562 Z M 1227.332031 1314.925781 " clip-rule="nonzero"/></clipPath><clipPath id="b720ec54bc"><path d="M 1198 1364 L 1203 1364 L 1203 1400 L 1198 1400 Z M 1198 1364 " clip-rule="nonzero"/></clipPath><clipPath id="497881d0e9"><path d="M 1028.484375 1309.488281 L 1227.390625 1314.925781 L 1223.957031 1440.601562 L 1025.050781 1435.164062 Z M 1028.484375 1309.488281 " clip-rule="nonzero"/></clipPath><clipPath id="c18bfd7396"><path d="M 1227.332031 1314.925781 L 1028.421875 1309.484375 L 1024.988281 1435.164062 L 1223.894531 1440.601562 Z M 1227.332031 1314.925781 " clip-rule="nonzero"/></clipPath><clipPath id="0e307f20e5"><path d="M 1227.332031 1314.925781 L 1028.421875 1309.484375 L 1024.988281 1435.164062 L 1223.894531 1440.601562 Z M 1227.332031 1314.925781 " clip-rule="nonzero"/></clipPath><clipPath id="4bcf9fd682"><path d="M 1189 1402 L 1209 1402 L 1209 1439 L 1189 1439 Z M 1189 1402 " clip-rule="nonzero"/></clipPath><clipPath id="837bbb66f9"><path d="M 1028.484375 1309.488281 L 1227.390625 1314.925781 L 1223.957031 1440.601562 L 1025.050781 1435.164062 Z M 1028.484375 1309.488281 " clip-rule="nonzero"/></clipPath><clipPath id="52c4c459a0"><path d="M 1227.332031 1314.925781 L 1028.421875 1309.484375 L 1024.988281 1435.164062 L 1223.894531 1440.601562 Z M 1227.332031 1314.925781 " clip-rule="nonzero"/></clipPath><clipPath id="d82464c727"><path d="M 1227.332031 1314.925781 L 1028.421875 1309.484375 L 1024.988281 1435.164062 L 1223.894531 1440.601562 Z M 1227.332031 1314.925781 " clip-rule="nonzero"/></clipPath><clipPath id="886c5c48de"><path d="M 1202 1412 L 1206 1412 L 1206 1437 L 1202 1437 Z M 1202 1412 " clip-rule="nonzero"/></clipPath><clipPath id="3caaeefb22"><path d="M 1028.484375 1309.488281 L 1227.390625 1314.925781 L 1223.957031 1440.601562 L 1025.050781 1435.164062 Z M 1028.484375 1309.488281 " clip-rule="nonzero"/></clipPath><clipPath id="5da7a17f6b"><path d="M 1227.332031 1314.925781 L 1028.421875 1309.484375 L 1024.988281 1435.164062 L 1223.894531 1440.601562 Z M 1227.332031 1314.925781 " clip-rule="nonzero"/></clipPath><clipPath id="3e9f02f4cf"><path d="M 1227.332031 1314.925781 L 1028.421875 1309.484375 L 1024.988281 1435.164062 L 1223.894531 1440.601562 Z M 1227.332031 1314.925781 " clip-rule="nonzero"/></clipPath><clipPath id="cb8c59d87a"><path d="M 1196 1420 L 1201 1420 L 1201 1438 L 1196 1438 Z M 1196 1420 " clip-rule="nonzero"/></clipPath><clipPath id="96fc9f8d6b"><path d="M 1028.484375 1309.488281 L 1227.390625 1314.925781 L 1223.957031 1440.601562 L 1025.050781 1435.164062 Z M 1028.484375 1309.488281 " clip-rule="nonzero"/></clipPath><clipPath id="73f17609f5"><path d="M 1227.332031 1314.925781 L 1028.421875 1309.484375 L 1024.988281 1435.164062 L 1223.894531 1440.601562 Z M 1227.332031 1314.925781 " clip-rule="nonzero"/></clipPath><clipPath id="0bc655a290"><path d="M 1227.332031 1314.925781 L 1028.421875 1309.484375 L 1024.988281 1435.164062 L 1223.894531 1440.601562 Z M 1227.332031 1314.925781 " clip-rule="nonzero"/></clipPath><clipPath id="c6d5b1fb6f"><path d="M 1192 1414 L 1196 1414 L 1196 1438 L 1192 1438 Z M 1192 1414 " clip-rule="nonzero"/></clipPath><clipPath id="3be429beee"><path d="M 1028.484375 1309.488281 L 1227.390625 1314.925781 L 1223.957031 1440.601562 L 1025.050781 1435.164062 Z M 1028.484375 1309.488281 " clip-rule="nonzero"/></clipPath><clipPath id="ddf596484c"><path d="M 1227.332031 1314.925781 L 1028.421875 1309.484375 L 1024.988281 1435.164062 L 1223.894531 1440.601562 Z M 1227.332031 1314.925781 " clip-rule="nonzero"/></clipPath><clipPath id="f6998d5f0b"><path d="M 1227.332031 1314.925781 L 1028.421875 1309.484375 L 1024.988281 1435.164062 L 1223.894531 1440.601562 Z M 1227.332031 1314.925781 " clip-rule="nonzero"/></clipPath><clipPath id="86ee0a40a8"><path d="M 1193 1394 L 1206 1394 L 1206 1406 L 1193 1406 Z M 1193 1394 " clip-rule="nonzero"/></clipPath><clipPath id="9d0ee31438"><path d="M 1028.484375 1309.488281 L 1227.390625 1314.925781 L 1223.957031 1440.601562 L 1025.050781 1435.164062 Z M 1028.484375 1309.488281 " clip-rule="nonzero"/></clipPath><clipPath id="d519b0d3a0"><path d="M 1227.332031 1314.925781 L 1028.421875 1309.484375 L 1024.988281 1435.164062 L 1223.894531 1440.601562 Z M 1227.332031 1314.925781 " clip-rule="nonzero"/></clipPath><clipPath id="817380f63a"><path d="M 1227.332031 1314.925781 L 1028.421875 1309.484375 L 1024.988281 1435.164062 L 1223.894531 1440.601562 Z M 1227.332031 1314.925781 " clip-rule="nonzero"/></clipPath></defs><g fill="#000000" fill-opacity="1"><g transform="translate(122.335434, 1594.225604)"><g><path d="M 155.71875 0 L 65.453125 0 C 60.765625 0 56.300781 -0.878906 52.0625 -2.640625 C 47.832031 -4.398438 44.15625 -6.84375 41.03125 -9.96875 C 37.90625 -13.09375 35.429688 -16.738281 33.609375 -20.90625 C 31.785156 -25.070312 30.875 -29.5 30.875 -34.1875 L 30.875 -221.9375 C 30.875 -231.445312 34.257812 -239.585938 41.03125 -246.359375 C 47.539062 -252.878906 55.679688 -256.140625 65.453125 -256.140625 L 151.421875 -256.140625 C 162.097656 -256.140625 172.1875 -254.148438 181.6875 -250.171875 C 191.195312 -246.203125 199.535156 -240.703125 206.703125 -233.671875 C 213.867188 -226.503906 219.46875 -218.195312 223.5 -208.75 C 227.539062 -199.3125 229.5625 -189.253906 229.5625 -178.578125 C 229.5625 -161.898438 224.804688 -147.179688 215.296875 -134.421875 C 221.941406 -126.859375 227.085938 -118.484375 230.734375 -109.296875 C 234.378906 -100.117188 236.203125 -90.519531 236.203125 -80.5 C 236.203125 -69.6875 234.117188 -59.363281 229.953125 -49.53125 C 225.785156 -39.695312 219.988281 -31.066406 212.5625 -23.640625 C 205.144531 -16.210938 196.515625 -10.414062 186.671875 -6.25 C 176.835938 -2.082031 166.519531 0 155.71875 0 Z M 100.234375 -161.578125 L 147.890625 -161.578125 C 149.191406 -161.703125 150.5625 -162.253906 152 -163.234375 C 153.4375 -164.210938 154.738281 -165.414062 155.90625 -166.84375 C 158.507812 -170.226562 159.8125 -173.421875 159.8125 -176.421875 C 159.8125 -179.679688 158.25 -182.285156 155.125 -184.234375 C 152.65625 -185.796875 149.984375 -186.578125 147.109375 -186.578125 L 100.234375 -186.578125 Z M 100.234375 -69.359375 L 152.78125 -69.359375 C 154.082031 -69.359375 155.613281 -69.84375 157.375 -70.8125 C 159.132812 -71.789062 160.664062 -73.0625 161.96875 -74.625 C 165.21875 -78.28125 166.84375 -81.929688 166.84375 -85.578125 C 166.84375 -89.085938 165.21875 -92.273438 161.96875 -95.140625 C 158.707031 -97.742188 155.710938 -99.046875 152.984375 -99.046875 L 100.234375 -99.046875 Z M 100.234375 -69.359375 "/></g></g><g transform="translate(374.564888, 1594.225604)"><g><path d="M 52.75 0 C 48.0625 0 43.566406 -0.878906 39.265625 -2.640625 C 34.972656 -4.398438 31.195312 -6.84375 27.9375 -9.96875 C 24.675781 -13.09375 22.101562 -16.707031 20.21875 -20.8125 C 18.332031 -24.914062 17.390625 -29.3125 17.390625 -34 L 17.390625 -91.625 C 17.910156 -104.65625 20.90625 -117.0625 26.375 -128.84375 C 31.84375 -140.632812 39.203125 -151.023438 48.453125 -160.015625 C 57.566406 -168.992188 68.113281 -175.988281 80.09375 -181 C 92.082031 -186.019531 104.585938 -188.53125 117.609375 -188.53125 L 118.78125 -188.53125 C 129.332031 -188.269531 137.863281 -184.882812 144.375 -178.375 C 150.5 -171.863281 153.5625 -163.789062 153.5625 -154.15625 C 153.5625 -144.25 150.175781 -136.109375 143.40625 -129.734375 C 136.632812 -123.210938 128.363281 -119.820312 118.59375 -119.5625 L 117.21875 -119.5625 C 108.882812 -119.039062 101.851562 -115.914062 96.125 -110.1875 C 93.257812 -107.320312 91.007812 -104.066406 89.375 -100.421875 C 87.75 -96.773438 86.875 -93 86.75 -89.09375 L 86.75 -34 C 86.75 -29.3125 85.867188 -24.914062 84.109375 -20.8125 C 82.347656 -16.707031 79.90625 -13.09375 76.78125 -9.96875 C 73.65625 -6.84375 70.007812 -4.398438 65.84375 -2.640625 C 61.675781 -0.878906 57.3125 0 52.75 0 Z M 52.75 0 "/></g></g><g transform="translate(532.428096, 1594.225604)"><g><path d="M 55.09375 -197.125 C 45.195312 -197.125 36.734375 -200.644531 29.703125 -207.6875 C 22.535156 -214.457031 18.953125 -222.921875 18.953125 -233.078125 C 18.953125 -243.234375 22.535156 -251.703125 29.703125 -258.484375 C 33.085938 -261.734375 36.957031 -264.269531 41.3125 -266.09375 C 45.675781 -267.914062 50.269531 -268.828125 55.09375 -268.828125 C 59.78125 -268.828125 64.335938 -267.914062 68.765625 -266.09375 C 73.203125 -264.269531 77.113281 -261.734375 80.5 -258.484375 C 87.65625 -251.703125 91.234375 -243.234375 91.234375 -233.078125 C 91.234375 -222.921875 87.65625 -214.457031 80.5 -207.6875 C 77.113281 -204.425781 73.203125 -201.847656 68.765625 -199.953125 C 64.335938 -198.066406 59.78125 -197.125 55.09375 -197.125 Z M 55.09375 2.9375 C 50.40625 2.9375 45.910156 2.019531 41.609375 0.1875 C 37.316406 -1.632812 33.609375 -4.109375 30.484375 -7.234375 C 27.222656 -10.484375 24.644531 -14.191406 22.75 -18.359375 C 20.863281 -22.523438 19.921875 -26.890625 19.921875 -31.453125 L 19.921875 -154.34375 C 19.921875 -158.90625 20.863281 -163.234375 22.75 -167.328125 C 24.644531 -171.429688 27.222656 -175.113281 30.484375 -178.375 C 37.253906 -185.144531 45.65625 -188.53125 55.6875 -188.53125 C 60.238281 -188.53125 64.597656 -187.617188 68.765625 -185.796875 C 72.941406 -183.972656 76.59375 -181.5 79.71875 -178.375 C 86.226562 -171.601562 89.484375 -163.59375 89.484375 -154.34375 L 89.484375 -31.453125 C 89.484375 -22.078125 86.097656 -14.003906 79.328125 -7.234375 C 72.804688 -0.453125 64.726562 2.9375 55.09375 2.9375 Z M 55.09375 2.9375 "/></g></g><g transform="translate(642.619742, 1594.225604)"><g><path d="M 112.34375 2.34375 C 99.445312 2.34375 87.234375 -0.191406 75.703125 -5.265625 C 64.179688 -10.347656 53.988281 -17.382812 45.125 -26.375 C 36.40625 -35.363281 29.601562 -45.6875 24.71875 -57.34375 C 19.832031 -69 17.390625 -81.273438 17.390625 -94.171875 L 17.390625 -211.390625 C 17.390625 -216.078125 18.332031 -220.601562 20.21875 -224.96875 C 22.101562 -229.332031 24.675781 -233.078125 27.9375 -236.203125 C 31.0625 -239.328125 34.769531 -241.800781 39.0625 -243.625 C 43.363281 -245.445312 47.796875 -246.359375 52.359375 -246.359375 C 57.046875 -246.359375 61.570312 -245.445312 65.9375 -243.625 C 70.300781 -241.800781 74.175781 -239.328125 77.5625 -236.203125 C 80.945312 -232.953125 83.613281 -229.207031 85.5625 -224.96875 C 87.519531 -220.738281 88.5 -216.210938 88.5 -211.390625 L 88.5 -199.46875 L 131.09375 -199.46875 C 135.65625 -199.46875 140.082031 -198.554688 144.375 -196.734375 C 148.675781 -194.910156 152.457031 -192.4375 155.71875 -189.3125 C 158.84375 -186.0625 161.316406 -182.285156 163.140625 -177.984375 C 164.960938 -173.679688 165.875 -169.253906 165.875 -164.703125 C 165.875 -160.140625 164.960938 -155.835938 163.140625 -151.796875 C 161.316406 -147.765625 158.773438 -144.1875 155.515625 -141.0625 C 149.003906 -134.550781 140.863281 -131.296875 131.09375 -131.296875 L 88.5 -131.296875 L 88.5 -93.78125 C 88.5 -90.132812 89.082031 -86.679688 90.25 -83.421875 C 91.425781 -80.171875 93.125 -77.375 95.34375 -75.03125 C 100.03125 -69.6875 105.695312 -67.015625 112.34375 -67.015625 C 119.375 -67.015625 124.320312 -68.445312 127.1875 -71.3125 C 131.09375 -75.09375 135.128906 -77.988281 139.296875 -80 C 143.460938 -82.019531 148.085938 -83.03125 153.171875 -83.03125 C 161.503906 -83.03125 168.800781 -79.90625 175.0625 -73.65625 C 181.4375 -67.269531 184.625 -59.457031 184.625 -50.21875 C 184.625 -42.269531 182.472656 -35.003906 178.171875 -28.421875 C 173.878906 -21.847656 168.019531 -16.21875 160.59375 -11.53125 C 153.695312 -7.101562 145.976562 -3.679688 137.4375 -1.265625 C 128.90625 1.140625 120.539062 2.34375 112.34375 2.34375 Z M 112.34375 2.34375 "/></g></g><g transform="translate(831.547616, 1594.225604)"><g><path d="M 112.34375 2.34375 C 99.445312 2.34375 87.234375 -0.191406 75.703125 -5.265625 C 64.179688 -10.347656 53.988281 -17.382812 45.125 -26.375 C 36.40625 -35.363281 29.601562 -45.6875 24.71875 -57.34375 C 19.832031 -69 17.390625 -81.273438 17.390625 -94.171875 L 17.390625 -211.390625 C 17.390625 -216.078125 18.332031 -220.601562 20.21875 -224.96875 C 22.101562 -229.332031 24.675781 -233.078125 27.9375 -236.203125 C 31.0625 -239.328125 34.769531 -241.800781 39.0625 -243.625 C 43.363281 -245.445312 47.796875 -246.359375 52.359375 -246.359375 C 57.046875 -246.359375 61.570312 -245.445312 65.9375 -243.625 C 70.300781 -241.800781 74.175781 -239.328125 77.5625 -236.203125 C 80.945312 -232.953125 83.613281 -229.207031 85.5625 -224.96875 C 87.519531 -220.738281 88.5 -216.210938 88.5 -211.390625 L 88.5 -199.46875 L 131.09375 -199.46875 C 135.65625 -199.46875 140.082031 -198.554688 144.375 -196.734375 C 148.675781 -194.910156 152.457031 -192.4375 155.71875 -189.3125 C 158.84375 -186.0625 161.316406 -182.285156 163.140625 -177.984375 C 164.960938 -173.679688 165.875 -169.253906 165.875 -164.703125 C 165.875 -160.140625 164.960938 -155.835938 163.140625 -151.796875 C 161.316406 -147.765625 158.773438 -144.1875 155.515625 -141.0625 C 149.003906 -134.550781 140.863281 -131.296875 131.09375 -131.296875 L 88.5 -131.296875 L 88.5 -93.78125 C 88.5 -90.132812 89.082031 -86.679688 90.25 -83.421875 C 91.425781 -80.171875 93.125 -77.375 95.34375 -75.03125 C 100.03125 -69.6875 105.695312 -67.015625 112.34375 -67.015625 C 119.375 -67.015625 124.320312 -68.445312 127.1875 -71.3125 C 131.09375 -75.09375 135.128906 -77.988281 139.296875 -80 C 143.460938 -82.019531 148.085938 -83.03125 153.171875 -83.03125 C 161.503906 -83.03125 168.800781 -79.90625 175.0625 -73.65625 C 181.4375 -67.269531 184.625 -59.457031 184.625 -50.21875 C 184.625 -42.269531 182.472656 -35.003906 178.171875 -28.421875 C 173.878906 -21.847656 168.019531 -16.21875 160.59375 -11.53125 C 153.695312 -7.101562 145.976562 -3.679688 137.4375 -1.265625 C 128.90625 1.140625 120.539062 2.34375 112.34375 2.34375 Z M 112.34375 2.34375 "/></g></g></g><g fill="#000000" fill-opacity="1"><g transform="translate(1366.253919, 1594.225604)"><g><path d="M 167.828125 0 L 46.6875 0 C 43.957031 0 41.320312 -0.582031 38.78125 -1.75 C 36.238281 -2.925781 33.992188 -4.492188 32.046875 -6.453125 C 28.003906 -10.617188 25.984375 -15.566406 25.984375 -21.296875 L 25.984375 -236.59375 C 25.984375 -242.457031 28.132812 -247.539062 32.4375 -251.84375 C 36.601562 -256.007812 41.679688 -258.09375 47.671875 -258.09375 C 53.796875 -258.09375 58.941406 -256.007812 63.109375 -251.84375 C 67.273438 -247.664062 69.359375 -242.582031 69.359375 -236.59375 L 69.359375 -43.171875 L 167.828125 -42.984375 C 173.953125 -42.984375 179.097656 -40.898438 183.265625 -36.734375 C 187.429688 -32.566406 189.515625 -27.484375 189.515625 -21.484375 C 189.515625 -15.234375 187.460938 -10.085938 183.359375 -6.046875 C 179.253906 -2.015625 174.078125 0 167.828125 0 Z M 167.828125 0 "/></g></g><g transform="translate(1569.834936, 1594.225604)"><g><path d="M 104.53125 2.15625 C 91.632812 2.15625 79.320312 -0.316406 67.59375 -5.265625 C 55.875 -10.222656 45.585938 -17.066406 36.734375 -25.796875 C 27.867188 -34.515625 20.960938 -44.671875 16.015625 -56.265625 C 11.066406 -67.859375 8.59375 -80.101562 8.59375 -93 C 8.59375 -106.019531 11.066406 -118.359375 16.015625 -130.015625 C 20.960938 -141.671875 27.867188 -151.863281 36.734375 -160.59375 C 45.585938 -169.320312 55.875 -176.160156 67.59375 -181.109375 C 79.320312 -186.054688 91.632812 -188.53125 104.53125 -188.53125 C 117.289062 -188.53125 129.46875 -186.117188 141.0625 -181.296875 C 152.65625 -176.484375 162.878906 -169.710938 171.734375 -160.984375 C 180.460938 -152.390625 187.363281 -142.296875 192.4375 -130.703125 C 197.519531 -119.109375 200.191406 -106.929688 200.453125 -94.171875 C 200.453125 -87.921875 198.460938 -82.90625 194.484375 -79.125 C 190.515625 -75.34375 185.40625 -73.453125 179.15625 -73.453125 L 57.046875 -73.453125 C 60.429688 -63.554688 66.488281 -55.414062 75.21875 -49.03125 C 83.6875 -42.65625 93.457031 -39.46875 104.53125 -39.46875 C 110.257812 -39.46875 115.007812 -39.953125 118.78125 -40.921875 C 122.5625 -41.898438 126.210938 -43.429688 129.734375 -45.515625 C 134.421875 -48.253906 138.648438 -49.625 142.421875 -49.625 C 148.285156 -49.625 153.367188 -47.34375 157.671875 -42.78125 C 161.703125 -38.351562 163.71875 -33.144531 163.71875 -27.15625 C 163.71875 -22.851562 162.285156 -18.878906 159.421875 -15.234375 C 156.554688 -11.585938 152.519531 -8.460938 147.3125 -5.859375 C 142.101562 -3.253906 135.816406 -1.269531 128.453125 0.09375 C 121.097656 1.46875 113.125 2.15625 104.53125 2.15625 Z M 55.6875 -109.796875 L 155.90625 -109.796875 C 152.78125 -120.742188 146.660156 -129.734375 137.546875 -136.765625 C 128.296875 -143.660156 117.550781 -147.109375 105.3125 -147.109375 C 93.195312 -147.109375 82.578125 -143.53125 73.453125 -136.375 C 69.160156 -133.113281 65.484375 -129.171875 62.421875 -124.546875 C 59.359375 -119.921875 57.113281 -115.003906 55.6875 -109.796875 Z M 55.6875 -109.796875 "/></g></g><g transform="translate(1778.691086, 1594.225604)"><g><path d="M 103.9375 2.15625 C 91.175781 2.15625 79 -0.316406 67.40625 -5.265625 C 55.8125 -10.222656 45.648438 -17.066406 36.921875 -25.796875 C 28.066406 -34.648438 21.195312 -44.835938 16.3125 -56.359375 C 11.425781 -67.890625 8.984375 -80.101562 8.984375 -93 C 8.984375 -105.894531 11.457031 -118.171875 16.40625 -129.828125 C 21.351562 -141.484375 28.191406 -151.738281 36.921875 -160.59375 C 45.648438 -169.320312 55.8125 -176.160156 67.40625 -181.109375 C 79 -186.054688 91.175781 -188.53125 103.9375 -188.53125 C 116.832031 -188.53125 129.039062 -186.085938 140.5625 -181.203125 C 152.09375 -176.316406 162.285156 -169.445312 171.140625 -160.59375 C 179.867188 -151.738281 186.675781 -141.515625 191.5625 -129.921875 C 196.445312 -118.328125 198.890625 -106.019531 198.890625 -93 L 198.890625 -20.515625 C 198.890625 -14.390625 196.738281 -9.179688 192.4375 -4.890625 C 188.40625 -0.453125 183.195312 1.765625 176.8125 1.765625 C 171.726562 1.765625 167.363281 0.363281 163.71875 -2.4375 C 160.070312 -5.238281 157.597656 -8.984375 156.296875 -13.671875 C 140.535156 -3.117188 123.082031 2.15625 103.9375 2.15625 Z M 103.9375 -41.21875 C 110.96875 -41.21875 117.640625 -42.550781 123.953125 -45.21875 C 130.273438 -47.894531 135.847656 -51.644531 140.671875 -56.46875 C 145.359375 -61.28125 149.003906 -66.8125 151.609375 -73.0625 C 154.210938 -79.320312 155.515625 -85.96875 155.515625 -93 C 155.515625 -100.03125 154.210938 -106.671875 151.609375 -112.921875 C 149.003906 -119.171875 145.359375 -124.707031 140.671875 -129.53125 C 135.984375 -134.21875 130.445312 -137.894531 124.0625 -140.5625 C 117.675781 -143.238281 110.96875 -144.578125 103.9375 -144.578125 C 97.03125 -144.578125 90.453125 -143.273438 84.203125 -140.671875 C 77.953125 -138.066406 72.414062 -134.351562 67.59375 -129.53125 C 62.78125 -124.707031 59.070312 -119.171875 56.46875 -112.921875 C 53.863281 -106.671875 52.5625 -100.03125 52.5625 -93 C 52.5625 -85.96875 53.863281 -79.320312 56.46875 -73.0625 C 59.070312 -66.8125 62.78125 -61.28125 67.59375 -56.46875 C 72.28125 -51.644531 77.75 -47.894531 84 -45.21875 C 90.257812 -42.550781 96.90625 -41.21875 103.9375 -41.21875 Z M 103.9375 -41.21875 "/></g></g><g transform="translate(1995.362247, 1594.225604)"><g><path d="M 39.65625 0 C 33.800781 0 28.59375 -2.082031 24.03125 -6.25 C 19.601562 -10.289062 17.390625 -15.367188 17.390625 -21.484375 L 17.390625 -88.5 C 17.390625 -101.914062 19.992188 -114.742188 25.203125 -126.984375 C 30.410156 -139.234375 37.640625 -149.984375 46.890625 -159.234375 C 56.140625 -168.472656 66.816406 -175.664062 78.921875 -180.8125 C 91.035156 -185.957031 103.800781 -188.53125 117.21875 -188.53125 L 117.609375 -188.53125 C 124.648438 -188.53125 130.15625 -186.546875 134.125 -182.578125 C 138.09375 -178.609375 140.078125 -173.429688 140.078125 -167.046875 C 140.078125 -164.046875 139.488281 -161.210938 138.3125 -158.546875 C 137.144531 -155.878906 135.585938 -153.566406 133.640625 -151.609375 C 129.078125 -147.441406 123.734375 -145.359375 117.609375 -145.359375 L 116.640625 -145.359375 C 109.347656 -145.222656 102.347656 -143.722656 95.640625 -140.859375 C 88.929688 -137.992188 82.972656 -134.023438 77.765625 -128.953125 C 72.546875 -123.734375 68.4375 -117.800781 65.4375 -111.15625 C 62.445312 -104.519531 60.890625 -97.425781 60.765625 -89.875 L 60.765625 -21.484375 C 60.765625 -15.492188 58.742188 -10.414062 54.703125 -6.25 C 50.535156 -2.082031 45.519531 0 39.65625 0 Z M 39.65625 0 "/></g></g><g transform="translate(2139.744561, 1594.225604)"><g><path d="M 34.78125 0 C 28.53125 0 23.316406 -2.082031 19.140625 -6.25 C 14.585938 -10.414062 12.3125 -15.429688 12.3125 -21.296875 L 12.3125 -96.125 C 12.3125 -108.757812 14.65625 -120.675781 19.34375 -131.875 C 24.03125 -143.070312 30.609375 -152.972656 39.078125 -161.578125 C 47.410156 -170.171875 57.113281 -176.8125 68.1875 -181.5 C 79.257812 -186.1875 91.113281 -188.53125 103.75 -188.53125 C 116.375 -188.53125 128.351562 -186.148438 139.6875 -181.390625 C 151.019531 -176.640625 160.921875 -170.035156 169.390625 -161.578125 C 177.984375 -152.972656 184.65625 -143.035156 189.40625 -131.765625 C 194.164062 -120.503906 196.546875 -108.625 196.546875 -96.125 L 196.546875 -21.296875 C 196.546875 -15.304688 194.523438 -10.289062 190.484375 -6.25 C 186.316406 -2.082031 181.238281 0 175.25 0 C 169.125 0 163.976562 -2.082031 159.8125 -6.25 C 155.382812 -10.289062 153.171875 -15.304688 153.171875 -21.296875 L 153.171875 -95.921875 C 153.046875 -102.566406 151.675781 -108.882812 149.0625 -114.875 C 146.457031 -120.863281 142.878906 -126.078125 138.328125 -130.515625 C 133.765625 -135.066406 128.488281 -138.613281 122.5 -141.15625 C 116.507812 -143.695312 110.257812 -144.96875 103.75 -144.96875 C 96.96875 -144.96875 90.679688 -143.726562 84.890625 -141.25 C 79.097656 -138.78125 73.984375 -135.332031 69.546875 -130.90625 C 65.253906 -126.46875 61.898438 -121.222656 59.484375 -115.171875 C 57.078125 -109.117188 55.875 -102.769531 55.875 -96.125 L 55.875 -21.296875 C 55.875 -15.304688 53.851562 -10.289062 49.8125 -6.25 C 45.644531 -2.082031 40.632812 0 34.78125 0 Z M 34.78125 0 "/></g></g><g transform="translate(2354.266591, 1594.225604)"><g><path d="M 42 -207.875 C 35.488281 -207.875 29.890625 -210.21875 25.203125 -214.90625 C 20.515625 -219.59375 18.171875 -225.195312 18.171875 -231.71875 C 18.171875 -238.226562 20.515625 -243.828125 25.203125 -248.515625 C 29.765625 -253.078125 35.363281 -255.359375 42 -255.359375 C 48.644531 -255.359375 54.25 -253.078125 58.8125 -248.515625 C 63.5 -243.828125 65.84375 -238.226562 65.84375 -231.71875 C 65.84375 -225.195312 63.5 -219.59375 58.8125 -214.90625 C 54.125 -210.21875 48.519531 -207.875 42 -207.875 Z M 42 1.765625 C 35.882812 1.765625 30.742188 -0.320312 26.578125 -4.5 C 22.140625 -8.53125 19.921875 -13.609375 19.921875 -19.734375 L 19.921875 -166.84375 C 19.921875 -172.84375 22.140625 -177.925781 26.578125 -182.09375 C 28.523438 -184.039062 30.863281 -185.597656 33.59375 -186.765625 C 36.332031 -187.941406 39.203125 -188.53125 42.203125 -188.53125 C 48.066406 -188.53125 53.144531 -186.382812 57.4375 -182.09375 C 61.476562 -177.789062 63.5 -172.707031 63.5 -166.84375 L 63.5 -19.734375 C 63.5 -13.742188 61.414062 -8.664062 57.25 -4.5 C 53.082031 -0.320312 48 1.765625 42 1.765625 Z M 42 1.765625 "/></g></g><g transform="translate(2438.082578, 1594.225604)"><g><path d="M 34.78125 0 C 28.53125 0 23.316406 -2.082031 19.140625 -6.25 C 14.585938 -10.414062 12.3125 -15.429688 12.3125 -21.296875 L 12.3125 -96.125 C 12.3125 -108.757812 14.65625 -120.675781 19.34375 -131.875 C 24.03125 -143.070312 30.609375 -152.972656 39.078125 -161.578125 C 47.410156 -170.171875 57.113281 -176.8125 68.1875 -181.5 C 79.257812 -186.1875 91.113281 -188.53125 103.75 -188.53125 C 116.375 -188.53125 128.351562 -186.148438 139.6875 -181.390625 C 151.019531 -176.640625 160.921875 -170.035156 169.390625 -161.578125 C 177.984375 -152.972656 184.65625 -143.035156 189.40625 -131.765625 C 194.164062 -120.503906 196.546875 -108.625 196.546875 -96.125 L 196.546875 -21.296875 C 196.546875 -15.304688 194.523438 -10.289062 190.484375 -6.25 C 186.316406 -2.082031 181.238281 0 175.25 0 C 169.125 0 163.976562 -2.082031 159.8125 -6.25 C 155.382812 -10.289062 153.171875 -15.304688 153.171875 -21.296875 L 153.171875 -95.921875 C 153.046875 -102.566406 151.675781 -108.882812 149.0625 -114.875 C 146.457031 -120.863281 142.878906 -126.078125 138.328125 -130.515625 C 133.765625 -135.066406 128.488281 -138.613281 122.5 -141.15625 C 116.507812 -143.695312 110.257812 -144.96875 103.75 -144.96875 C 96.96875 -144.96875 90.679688 -143.726562 84.890625 -141.25 C 79.097656 -138.78125 73.984375 -135.332031 69.546875 -130.90625 C 65.253906 -126.46875 61.898438 -121.222656 59.484375 -115.171875 C 57.078125 -109.117188 55.875 -102.769531 55.875 -96.125 L 55.875 -21.296875 C 55.875 -15.304688 53.851562 -10.289062 49.8125 -6.25 C 45.644531 -2.082031 40.632812 0 34.78125 0 Z M 34.78125 0 "/></g></g><g transform="translate(2652.604609, 1594.225604)"><g><path d="M 65.84375 88.109375 C 59.976562 88.109375 54.570312 85.960938 49.625 81.671875 C 44.800781 77.628906 42.390625 72.546875 42.390625 66.421875 C 42.390625 60.429688 45.582031 54.632812 51.96875 49.03125 C 57.570312 44.082031 65.257812 39.984375 75.03125 36.734375 C 81.28125 34.910156 87.269531 33.671875 93 33.015625 C 95.726562 32.753906 98.816406 32.554688 102.265625 32.421875 C 105.722656 32.296875 109.535156 32.234375 113.703125 32.234375 C 128.941406 32.234375 139.945312 30.148438 146.71875 25.984375 C 150.113281 23.898438 152.554688 21.226562 154.046875 17.96875 C 155.546875 14.71875 156.296875 10.679688 156.296875 5.859375 C 156.296875 1.816406 155.835938 -1.375 154.921875 -3.71875 C 154.015625 -6.0625 152.78125 -8.273438 151.21875 -10.359375 C 136.632812 -2.015625 120.875 2.15625 103.9375 2.15625 C 91.039062 2.15625 78.828125 -0.285156 67.296875 -5.171875 C 55.773438 -10.054688 45.585938 -16.929688 36.734375 -25.796875 C 27.867188 -34.515625 20.960938 -44.671875 16.015625 -56.265625 C 11.066406 -67.859375 8.59375 -80.101562 8.59375 -93 C 8.59375 -105.894531 11.066406 -118.171875 16.015625 -129.828125 C 20.960938 -141.484375 27.867188 -151.738281 36.734375 -160.59375 C 45.585938 -169.445312 55.773438 -176.316406 67.296875 -181.203125 C 78.828125 -186.085938 91.039062 -188.53125 103.9375 -188.53125 C 116.832031 -188.53125 129.109375 -186.054688 140.765625 -181.109375 C 152.421875 -176.160156 162.613281 -169.320312 171.34375 -160.59375 C 180.070312 -151.738281 186.910156 -141.484375 191.859375 -129.828125 C 196.804688 -118.171875 199.28125 -105.894531 199.28125 -93 C 199.28125 -73.976562 194.003906 -56.523438 183.453125 -40.640625 C 193.867188 -29.828125 199.078125 -14.457031 199.078125 5.46875 C 199.078125 17.1875 197.15625 27.472656 193.3125 36.328125 C 189.476562 45.191406 184.109375 52.617188 177.203125 58.609375 C 170.691406 64.210938 163.171875 68.445312 154.640625 71.3125 C 146.109375 74.175781 137.085938 75.609375 127.578125 75.609375 C 123.796875 75.609375 119.953125 75.414062 116.046875 75.03125 C 112.140625 74.632812 108.300781 74.4375 104.53125 74.4375 C 99.707031 74.4375 95.304688 75.085938 91.328125 76.390625 C 87.359375 77.691406 83.160156 80.035156 78.734375 83.421875 C 74.691406 86.546875 70.394531 88.109375 65.84375 88.109375 Z M 103.9375 -41.21875 C 111.101562 -41.21875 117.84375 -42.550781 124.15625 -45.21875 C 130.476562 -47.894531 136.046875 -51.644531 140.859375 -56.46875 C 145.679688 -61.28125 149.394531 -66.8125 152 -73.0625 C 154.601562 -79.320312 155.90625 -85.96875 155.90625 -93 C 155.90625 -100.03125 154.566406 -106.671875 151.890625 -112.921875 C 149.222656 -119.171875 145.484375 -124.707031 140.671875 -129.53125 C 135.984375 -134.21875 130.445312 -137.894531 124.0625 -140.5625 C 117.675781 -143.238281 110.96875 -144.578125 103.9375 -144.578125 C 97.03125 -144.578125 90.382812 -143.238281 84 -140.5625 C 77.625 -137.894531 72.09375 -134.21875 67.40625 -129.53125 C 62.582031 -124.707031 58.835938 -119.171875 56.171875 -112.921875 C 53.503906 -106.671875 52.171875 -100.03125 52.171875 -93 C 52.171875 -85.96875 53.503906 -79.320312 56.171875 -73.0625 C 58.835938 -66.8125 62.582031 -61.28125 67.40625 -56.46875 C 72.21875 -51.644531 77.75 -47.894531 84 -45.21875 C 90.257812 -42.550781 96.90625 -41.21875 103.9375 -41.21875 Z M 103.9375 -41.21875 "/></g></g></g><g clip-path="url(#04849f825f)"><path fill="#0cc0df" d="M 1129.636719 1594.917969 C 1078.355469 1594.917969 1036.640625 1553.199219 1036.640625 1501.921875 C 1036.640625 1450.640625 1078.355469 1408.921875 1129.636719 1408.921875 C 1180.914062 1408.921875 1222.632812 1450.640625 1222.632812 1501.921875 C 1222.632812 1553.199219 1180.914062 1594.917969 1129.636719 1594.917969 Z M 1129.636719 1404.214844 C 1075.761719 1404.214844 1031.933594 1448.046875 1031.933594 1501.921875 C 1031.933594 1555.796875 1075.761719 1599.625 1129.636719 1599.625 C 1183.511719 1599.625 1227.339844 1555.796875 1227.339844 1501.921875 C 1227.339844 1448.046875 1183.511719 1404.214844 1129.636719 1404.214844 " fill-opacity="1" fill-rule="nonzero"/></g><path fill="#0cc0df" d="M 1123.175781 1486.902344 C 1124.894531 1484.9375 1126.503906 1483.09375 1128.117188 1481.253906 C 1129.472656 1479.714844 1129.867188 1479.714844 1131.203125 1481.242188 C 1132.832031 1483.101562 1134.457031 1484.957031 1136.152344 1486.898438 C 1138.066406 1484.71875 1139.839844 1482.691406 1141.617188 1480.671875 C 1142.140625 1480.066406 1142.777344 1479.871094 1143.414062 1480.425781 C 1143.996094 1480.9375 1143.800781 1481.429688 1143.539062 1482.113281 C 1143.125 1483.191406 1137.589844 1503.292969 1135.179688 1512.832031 C 1134.96875 1513.675781 1134.777344 1514.609375 1133.644531 1514.351562 C 1132.527344 1514.089844 1132.710938 1513.214844 1132.9375 1512.332031 C 1134.6875 1505.5 1136.398438 1498.660156 1138.125 1491.824219 C 1138.414062 1490.683594 1138.714844 1489.542969 1139.027344 1488.351562 C 1139.09375 1488.085938 1138.796875 1487.875 1138.570312 1488.03125 C 1138.164062 1488.3125 1137.675781 1488.675781 1137.429688 1488.933594 C 1136.125 1490.324219 1135.910156 1490.121094 1134.300781 1488.285156 C 1132.769531 1486.542969 1131.234375 1484.800781 1129.65625 1483.007812 C 1127.996094 1484.90625 1126.414062 1486.582031 1124.984375 1488.386719 C 1123.519531 1490.25 1122.664062 1490.015625 1121.214844 1488.144531 C 1121.042969 1487.917969 1120.835938 1487.742188 1120.566406 1487.597656 C 1120.34375 1487.472656 1120.085938 1487.667969 1120.132812 1487.914062 C 1120.257812 1488.570312 1120.382812 1489.21875 1120.542969 1489.855469 C 1122.097656 1496.03125 1123.664062 1502.199219 1125.226562 1508.375 C 1125.613281 1509.894531 1125.96875 1511.417969 1126.328125 1512.945312 C 1126.484375 1513.617188 1126.246094 1514.144531 1125.589844 1514.339844 C 1124.847656 1514.558594 1124.367188 1514.195312 1124.136719 1513.480469 C 1124.0625 1513.246094 1123.984375 1513.011719 1123.925781 1512.777344 C 1121.980469 1505.03125 1117.277344 1487.324219 1116.078125 1483.101562 C 1115.964844 1482.699219 1115.816406 1482.308594 1115.644531 1481.929688 C 1115.398438 1481.359375 1115.347656 1480.839844 1116.050781 1480.335938 C 1116.917969 1479.71875 1117.484375 1480.402344 1118.015625 1481.007812 C 1119.695312 1482.933594 1121.375 1484.84375 1123.175781 1486.902344 Z M 1115.75 1466.609375 C 1113.214844 1468.316406 1111.082031 1470.449219 1109.414062 1472.953125 L 1109.375 1473.003906 C 1106.523438 1477.003906 1105.09375 1481.691406 1105.125 1486.960938 C 1105.097656 1490.644531 1105.839844 1494.109375 1107.335938 1497.273438 C 1107.355469 1497.316406 1107.425781 1497.457031 1107.460938 1497.535156 C 1108.640625 1499.992188 1110.257812 1502.335938 1112.398438 1504.699219 C 1116.222656 1508.917969 1118.152344 1513.792969 1118.132812 1519.195312 L 1118.128906 1519.695312 L 1118.632812 1519.699219 C 1121.230469 1519.703125 1127.394531 1519.710938 1132.71875 1519.710938 C 1136.042969 1519.710938 1139.046875 1519.707031 1140.636719 1519.703125 L 1141.140625 1519.699219 L 1141.136719 1519.199219 C 1141.117188 1513.800781 1143.046875 1508.917969 1146.875 1504.699219 C 1149.011719 1502.339844 1150.625 1500 1151.824219 1497.515625 L 1151.945312 1497.25 C 1153.433594 1494.105469 1154.175781 1490.640625 1154.148438 1486.933594 C 1154.179688 1481.691406 1152.746094 1477.003906 1149.902344 1473.007812 L 1149.863281 1472.957031 C 1147.78125 1469.84375 1144.929688 1467.28125 1141.664062 1465.453125 C 1139.441406 1464.203125 1137.046875 1463.332031 1134.59375 1462.835938 C 1128.90625 1461.6875 1122.863281 1462.542969 1117.707031 1465.414062 C 1117.015625 1465.796875 1116.363281 1466.195312 1115.75 1466.609375 " fill-opacity="1" fill-rule="nonzero"/><path fill="#0cc0df" d="M 1141.027344 1528.929688 L 1118.242188 1528.929688 C 1117.363281 1528.929688 1116.644531 1528.207031 1116.644531 1527.328125 C 1116.644531 1526.445312 1117.363281 1525.730469 1118.242188 1525.730469 L 1141.027344 1525.730469 C 1141.910156 1525.730469 1142.625 1526.445312 1142.625 1527.328125 C 1142.625 1528.207031 1141.910156 1528.929688 1141.027344 1528.929688 Z M 1139.214844 1534.363281 L 1120.054688 1534.363281 C 1119.175781 1534.363281 1118.453125 1533.644531 1118.453125 1532.765625 C 1118.453125 1531.882812 1119.175781 1531.167969 1120.054688 1531.167969 L 1139.214844 1531.167969 C 1140.097656 1531.167969 1140.816406 1531.882812 1140.816406 1532.765625 C 1140.816406 1533.644531 1140.097656 1534.363281 1139.214844 1534.363281 Z M 1198.027344 1502.839844 C 1197.035156 1502.347656 1195.945312 1502.046875 1194.886719 1501.695312 C 1194.121094 1501.441406 1193.410156 1501.128906 1193.480469 1500.160156 C 1193.542969 1499.316406 1194.179688 1499.050781 1194.902344 1498.824219 C 1198.328125 1497.765625 1200 1495.5 1199.839844 1492.222656 C 1199.628906 1488.007812 1195.421875 1485.367188 1191.542969 1486.984375 C 1186.972656 1488.882812 1182.777344 1487.527344 1178.710938 1485.363281 C 1178.03125 1485 1177.722656 1484.335938 1178.148438 1483.554688 C 1178.601562 1482.726562 1179.285156 1482.597656 1180.089844 1483.007812 C 1181.773438 1483.863281 1183.5 1484.589844 1185.371094 1484.953125 C 1190.644531 1485.960938 1195.335938 1482.308594 1195.492188 1477.070312 C 1195.640625 1472.132812 1191.1875 1468.660156 1186.457031 1470.050781 C 1185.523438 1470.328125 1184.632812 1470.738281 1183.945312 1469.691406 C 1183.226562 1468.609375 1184.050781 1467.992188 1184.683594 1467.273438 C 1186.9375 1464.722656 1187.578125 1461.78125 1186.472656 1458.570312 C 1185.257812 1455.039062 1182.652344 1452.941406 1179.039062 1452.28125 C 1172.578125 1451.09375 1167.957031 1454.945312 1167.734375 1461.5625 C 1167.722656 1461.980469 1167.730469 1462.386719 1167.753906 1462.796875 C 1167.796875 1463.671875 1167.53125 1464.34375 1166.550781 1464.414062 C 1165.496094 1464.488281 1165.101562 1463.820312 1165.011719 1462.886719 C 1164.859375 1461.402344 1165.054688 1459.941406 1165.398438 1458.511719 C 1165.863281 1456.53125 1166.75 1454.75 1167.984375 1453.144531 C 1169.785156 1450.796875 1169.789062 1448.433594 1167.996094 1446.125 C 1165.835938 1443.34375 1161.246094 1442.25 1158.046875 1443.71875 C 1157.089844 1444.160156 1156.488281 1444.847656 1155.984375 1445.773438 C 1154.023438 1449.394531 1151.15625 1451.65625 1146.824219 1451.554688 C 1145.753906 1451.53125 1144.648438 1451.378906 1144.707031 1450.023438 C 1144.761719 1448.785156 1145.777344 1448.734375 1146.808594 1448.746094 C 1151.875 1448.8125 1155.308594 1444.011719 1154.105469 1438.621094 C 1153.015625 1433.769531 1148.582031 1430.394531 1143.789062 1430.78125 C 1138.851562 1431.175781 1134.925781 1434.960938 1134.695312 1439.949219 C 1134.539062 1443.285156 1134.578125 1452.734375 1134.585938 1459.019531 C 1134.789062 1459.050781 1134.996094 1459.082031 1135.199219 1459.117188 C 1138.167969 1459.675781 1140.933594 1460.683594 1143.421875 1462.117188 C 1144.1875 1462.539062 1144.929688 1462.996094 1145.636719 1463.472656 C 1148.566406 1465.453125 1151.042969 1467.925781 1152.996094 1470.835938 C 1156.304688 1475.488281 1157.964844 1480.90625 1157.929688 1486.945312 C 1157.957031 1491.203125 1157.097656 1495.210938 1155.367188 1498.871094 L 1155.214844 1499.183594 C 1153.875 1501.972656 1152.0625 1504.609375 1149.679688 1507.234375 C 1146.398438 1510.855469 1144.84375 1514.839844 1144.925781 1519.425781 C 1144.929688 1519.742188 1144.925781 1520.074219 1144.902344 1520.449219 C 1144.8125 1522.152344 1143.621094 1523.398438 1142.007812 1523.46875 C 1141.773438 1523.480469 1140.285156 1523.496094 1134.5 1523.496094 C 1127.019531 1523.496094 1117.457031 1523.472656 1117.265625 1523.46875 C 1115.652344 1523.398438 1114.460938 1522.152344 1114.371094 1520.449219 C 1114.351562 1520.101562 1114.339844 1519.757812 1114.347656 1519.433594 C 1114.425781 1514.84375 1112.871094 1510.855469 1109.597656 1507.234375 C 1107.207031 1504.605469 1105.398438 1501.972656 1104.054688 1499.183594 C 1104.019531 1499.101562 1103.941406 1498.941406 1103.910156 1498.871094 C 1102.175781 1495.210938 1101.3125 1491.203125 1101.339844 1486.941406 C 1101.308594 1480.90625 1102.96875 1475.488281 1106.285156 1470.828125 C 1108.230469 1467.925781 1110.703125 1465.453125 1113.632812 1463.472656 C 1114.335938 1463 1115.082031 1462.542969 1115.859375 1462.109375 C 1118.339844 1460.683594 1121.097656 1459.679688 1124.0625 1459.125 C 1124.289062 1459.074219 1124.523438 1459.042969 1124.75 1459.003906 C 1124.757812 1452.660156 1124.777344 1443.113281 1124.613281 1439.710938 C 1124.382812 1435.023438 1120.746094 1431.503906 1115.996094 1430.851562 C 1111.675781 1430.261719 1107.195312 1432.976562 1105.6875 1437.222656 C 1104.578125 1440.332031 1104.730469 1443.371094 1106.820312 1446.085938 C 1108.230469 1447.914062 1110.066406 1448.972656 1112.457031 1448.785156 C 1113.53125 1448.707031 1114.648438 1448.757812 1114.644531 1450.136719 C 1114.636719 1451.480469 1113.484375 1451.5625 1112.4375 1451.585938 C 1108.183594 1451.65625 1105.316406 1449.441406 1103.417969 1445.875 C 1102.710938 1444.550781 1101.742188 1443.828125 1100.398438 1443.414062 C 1095.839844 1442 1090.714844 1444.898438 1090.027344 1449.285156 C 1089.824219 1450.566406 1090.03125 1451.648438 1090.953125 1452.699219 C 1093.363281 1455.484375 1094.457031 1458.789062 1094.363281 1462.46875 C 1094.34375 1463.457031 1094.183594 1464.476562 1092.882812 1464.441406 C 1091.539062 1464.40625 1091.601562 1463.382812 1091.605469 1462.386719 C 1091.628906 1457.398438 1089.351562 1453.605469 1085.460938 1452.535156 C 1081.269531 1451.382812 1077.515625 1452.304688 1074.546875 1455.613281 C 1072.160156 1458.269531 1071.71875 1462.175781 1073.300781 1465.347656 C 1073.753906 1466.257812 1074.363281 1467.039062 1075.09375 1467.742188 C 1075.65625 1468.289062 1075.886719 1468.894531 1075.464844 1469.636719 C 1075.042969 1470.359375 1074.402344 1470.574219 1073.65625 1470.320312 C 1070.105469 1469.121094 1067.074219 1469.785156 1064.988281 1473 C 1063.167969 1475.804688 1063.492188 1478.765625 1065.230469 1481.496094 C 1067.125 1484.46875 1070.671875 1485.664062 1074.402344 1484.867188 C 1076.039062 1484.523438 1077.550781 1483.90625 1079.015625 1483.140625 C 1079.824219 1482.71875 1080.625 1482.566406 1081.152344 1483.511719 C 1081.722656 1484.542969 1081.148438 1485.15625 1080.257812 1485.609375 C 1075.945312 1487.792969 1071.605469 1488.875 1066.898438 1486.636719 C 1064.113281 1485.308594 1060.023438 1488.210938 1059.550781 1491.644531 C 1059.105469 1494.9375 1060.851562 1497.742188 1064.023438 1498.75 C 1064.871094 1499.023438 1065.871094 1499.101562 1065.867188 1500.28125 C 1065.863281 1501.5625 1064.746094 1501.613281 1063.859375 1501.867188 C 1057.1875 1503.816406 1054.210938 1509.917969 1057.101562 1515.734375 C 1059.292969 1520.152344 1063.984375 1522.050781 1068.644531 1520.464844 C 1072.195312 1519.265625 1075.507812 1519.558594 1078.292969 1522.351562 C 1079.007812 1523.066406 1079.832031 1523.894531 1078.878906 1524.914062 C 1077.890625 1525.964844 1077.140625 1525.144531 1076.390625 1524.390625 C 1074.144531 1522.121094 1070.460938 1522.003906 1067.699219 1524.058594 C 1064.382812 1526.527344 1063.363281 1530.167969 1065.097656 1533.347656 C 1066.726562 1536.34375 1070.164062 1537.617188 1073.429688 1536.382812 C 1074.347656 1536.035156 1075.222656 1535.589844 1075.96875 1536.574219 C 1076.710938 1537.5625 1076.046875 1538.296875 1075.484375 1539.085938 C 1073.898438 1541.300781 1073.832031 1544.015625 1075.246094 1546.207031 C 1076.660156 1548.402344 1079.292969 1549.503906 1081.835938 1548.988281 C 1082.925781 1548.761719 1083.714844 1548.308594 1084.203125 1547.167969 C 1085.429688 1544.292969 1087.601562 1542.273438 1090.425781 1540.945312 C 1091.28125 1540.542969 1092.191406 1540.253906 1092.722656 1541.296875 C 1093.285156 1542.398438 1092.578125 1543 1091.601562 1543.460938 C 1087.164062 1545.570312 1085.523438 1549.367188 1085.628906 1553.992188 C 1085.710938 1557.898438 1089.175781 1561.359375 1093.5 1562.113281 C 1095.664062 1562.492188 1097.855469 1562.40625 1099.964844 1561.726562 C 1101.71875 1561.167969 1103.074219 1560.417969 1103.816406 1558.347656 C 1105.257812 1554.34375 1108.550781 1551.996094 1112.433594 1550.535156 C 1113.964844 1549.957031 1115.589844 1549.613281 1117.175781 1549.203125 C 1118.117188 1548.957031 1119.023438 1549.039062 1119.285156 1550.175781 C 1119.558594 1551.347656 1118.695312 1551.734375 1117.765625 1551.898438 C 1115.660156 1552.269531 1113.632812 1552.875 1111.75 1553.871094 C 1108.476562 1555.621094 1106.175781 1558.09375 1105.609375 1561.957031 C 1104.894531 1566.820312 1108.078125 1571.679688 1112.847656 1572.804688 C 1117.878906 1573.988281 1123.015625 1571.09375 1124.429688 1566.273438 C 1124.527344 1565.933594 1124.609375 1565.578125 1124.609375 1565.234375 C 1124.613281 1560.328125 1124.613281 1551.328125 1124.613281 1544.398438 C 1124.492188 1544.171875 1124.410156 1543.914062 1124.410156 1543.640625 C 1124.410156 1543.359375 1124.492188 1543.105469 1124.613281 1542.875 C 1124.613281 1541.769531 1124.613281 1540.738281 1124.613281 1539.796875 L 1122.125 1539.796875 C 1121.242188 1539.796875 1120.527344 1539.082031 1120.527344 1538.203125 C 1120.527344 1537.320312 1121.242188 1536.605469 1122.125 1536.605469 L 1137.144531 1536.605469 C 1138.027344 1536.605469 1138.742188 1537.320312 1138.742188 1538.203125 C 1138.742188 1539.082031 1138.027344 1539.796875 1137.144531 1539.796875 L 1134.660156 1539.796875 C 1134.660156 1540.539062 1134.664062 1541.601562 1134.664062 1542.890625 C 1134.785156 1543.109375 1134.855469 1543.367188 1134.855469 1543.640625 C 1134.855469 1543.90625 1134.785156 1544.15625 1134.667969 1544.378906 C 1134.683594 1550.507812 1134.699219 1559.894531 1134.714844 1563.746094 C 1134.734375 1569.140625 1139.332031 1573.421875 1144.707031 1573.070312 C 1150.316406 1572.707031 1154.519531 1567.597656 1153.785156 1562.15625 C 1153.234375 1558.082031 1150.828125 1555.484375 1147.332031 1553.710938 C 1145.429688 1552.746094 1143.386719 1552.195312 1141.292969 1551.796875 C 1140.453125 1551.628906 1139.859375 1551.148438 1140.039062 1550.199219 C 1140.214844 1549.269531 1140.910156 1548.945312 1141.765625 1549.105469 C 1146.617188 1550 1151.089844 1551.644531 1154.175781 1555.804688 C 1154.699219 1556.507812 1155.328125 1557.269531 1155.484375 1558.082031 C 1155.976562 1560.648438 1157.921875 1561.296875 1160.007812 1561.859375 C 1162.035156 1562.40625 1164.097656 1562.453125 1166.132812 1562.027344 C 1170.148438 1561.195312 1173.128906 1558.183594 1173.683594 1554.554688 C 1174.328125 1550.316406 1172.144531 1545.847656 1168.433594 1543.765625 C 1167.417969 1543.207031 1165.695312 1542.851562 1166.707031 1541.195312 C 1167.578125 1539.769531 1168.828125 1540.847656 1169.804688 1541.378906 C 1172.253906 1542.707031 1174.121094 1544.652344 1175.203125 1547.234375 C 1175.628906 1548.234375 1176.3125 1548.667969 1177.277344 1548.902344 C 1179.800781 1549.519531 1182.460938 1548.523438 1183.957031 1546.382812 C 1185.429688 1544.273438 1185.488281 1541.546875 1184.109375 1539.398438 C 1183.914062 1539.105469 1183.703125 1538.824219 1183.476562 1538.550781 C 1182.914062 1537.863281 1182.875 1537.164062 1183.433594 1536.472656 C 1183.96875 1535.816406 1184.664062 1535.789062 1185.359375 1536.117188 C 1186.96875 1536.886719 1188.636719 1537.03125 1190.332031 1536.523438 C 1193.003906 1535.722656 1194.898438 1533.304688 1195.082031 1530.542969 C 1195.28125 1527.722656 1193.207031 1524.550781 1190.363281 1523.261719 C 1188.117188 1522.246094 1184.675781 1522.027344 1182.648438 1524.675781 C 1182.0625 1525.4375 1181.300781 1525.675781 1180.523438 1524.960938 C 1179.746094 1524.230469 1180.074219 1523.492188 1180.636719 1522.769531 C 1182.816406 1519.992188 1186.6875 1519.066406 1190.621094 1520.410156 C 1197.105469 1522.609375 1203.546875 1517.851562 1203.261719 1511.019531 C 1203.113281 1507.304688 1201.402344 1504.503906 1198.027344 1502.839844 " fill-opacity="1" fill-rule="nonzero"/><g clip-path="url(#ae486f9ea4)"><g clip-path="url(#3ccf52d4fd)"><g clip-path="url(#cebf9d47bd)"><g clip-path="url(#082ae111ae)"><path fill="#0f0f0f" d="M 1147.355469 1391.390625 C 1133.328125 1389.570312 1116.566406 1390.199219 1102.519531 1393.070312 C 1094.339844 1394.738281 1081.179688 1398.433594 1076.988281 1405.40625 C 1077.023438 1405 1077.117188 1404.613281 1077.28125 1404.238281 C 1077.183594 1398.875 1077.074219 1393.074219 1076.96875 1387.121094 C 1076.972656 1387.125 1076.980469 1387.125 1076.988281 1387.125 C 1076.902344 1382.40625 1076.816406 1377.597656 1076.730469 1372.832031 C 1077.628906 1367.878906 1086.96875 1362.992188 1101.195312 1360.054688 C 1115.148438 1357.171875 1131.816406 1356.464844 1145.78125 1358.167969 C 1161.1875 1360.046875 1171.695312 1364.582031 1175.445312 1370.960938 C 1175.539062 1371.550781 1175.738281 1372.980469 1175.714844 1374.394531 C 1175.671875 1377.84375 1175.621094 1382.039062 1175.582031 1386.300781 C 1175.605469 1386.292969 1175.628906 1386.285156 1175.648438 1386.28125 C 1175.589844 1393.164062 1175.585938 1398.523438 1175.632812 1401.972656 C 1171.21875 1397.71875 1162.914062 1393.40625 1147.355469 1391.390625 " fill-opacity="1" fill-rule="nonzero"/></g></g></g></g><g clip-path="url(#ea8b5d7cf9)"><g clip-path="url(#88f973a736)"><g clip-path="url(#1d92fc8d45)"><g clip-path="url(#ba50572eac)"><path fill="#0f0f0f" d="M 1028.125 1355.066406 L 1128.699219 1312.40625 C 1129.085938 1312.242188 1129.523438 1312.253906 1129.90625 1312.4375 L 1225.183594 1359.046875 C 1225.738281 1359.320312 1226.085938 1359.914062 1226.078125 1360.5625 C 1226.066406 1361.210938 1225.695312 1361.792969 1225.132812 1362.046875 L 1178.898438 1382.929688 C 1178.925781 1380.082031 1178.960938 1377.027344 1179.007812 1373.777344 C 1179.039062 1371.554688 1178.636719 1369.410156 1178.621094 1369.320312 L 1178.566406 1369.03125 L 1178.425781 1368.777344 C 1175.492188 1363.492188 1167.519531 1356.648438 1146.183594 1354.046875 C 1131.90625 1352.304688 1114.863281 1353.023438 1100.597656 1355.972656 C 1091.0625 1357.941406 1074.859375 1362.617188 1073.496094 1371.78125 L 1073.472656 1371.933594 L 1073.476562 1372.085938 C 1073.539062 1375.695312 1073.605469 1379.324219 1073.667969 1382.925781 L 1027.984375 1358.046875 C 1027.449219 1357.753906 1027.125 1357.152344 1027.152344 1356.511719 C 1027.183594 1355.867188 1027.5625 1355.304688 1028.125 1355.066406 " fill-opacity="1" fill-rule="nonzero"/></g></g></g></g><g clip-path="url(#b720ec54bc)"><g clip-path="url(#497881d0e9)"><g clip-path="url(#c18bfd7396)"><g clip-path="url(#0e307f20e5)"><path fill="#ff9a12" d="M 1198.886719 1399.324219 L 1201.957031 1399.351562 L 1202.269531 1365.019531 L 1199.199219 1364.988281 L 1198.886719 1399.324219 " fill-opacity="1" fill-rule="nonzero"/></g></g></g></g><g clip-path="url(#4bcf9fd682)"><g clip-path="url(#837bbb66f9)"><g clip-path="url(#52c4c459a0)"><g clip-path="url(#d82464c727)"><path fill="#ffb608" d="M 1202.5625 1403.613281 C 1207.875 1411.175781 1209.464844 1421.347656 1208.203125 1433.546875 C 1200.171875 1439.929688 1194.257812 1439.539062 1189.964844 1433.957031 C 1190.527344 1410.398438 1194.324219 1398.792969 1202.5625 1403.613281 " fill-opacity="1" fill-rule="evenodd"/></g></g></g></g><g clip-path="url(#886c5c48de)"><g clip-path="url(#3caaeefb22)"><g clip-path="url(#5da7a17f6b)"><g clip-path="url(#3e9f02f4cf)"><path fill="#e4a91d" d="M 1202.980469 1436.902344 L 1204.285156 1412.882812 L 1205.980469 1435.183594 C 1204.9375 1435.867188 1203.945312 1436.445312 1202.980469 1436.902344 " fill-opacity="1" fill-rule="evenodd"/></g></g></g></g><g clip-path="url(#cb8c59d87a)"><g clip-path="url(#96fc9f8d6b)"><g clip-path="url(#73f17609f5)"><g clip-path="url(#0bc655a290)"><path fill="#e4a91d" d="M 1199.222656 1423.570312 L 1198.882812 1433.773438 L 1200.757812 1420.476562 L 1199.410156 1437.449219 C 1198.429688 1437.714844 1197.507812 1437.851562 1196.628906 1437.890625 L 1196.542969 1437.878906 L 1199.222656 1423.570312 " fill-opacity="1" fill-rule="evenodd"/></g></g></g></g><g clip-path="url(#c6d5b1fb6f)"><g clip-path="url(#3be429beee)"><g clip-path="url(#ddf596484c)"><g clip-path="url(#f6998d5f0b)"><path fill="#e4a91d" d="M 1195.558594 1414.675781 L 1194.699219 1437.707031 C 1194.117188 1437.488281 1193.546875 1437.199219 1193 1436.847656 L 1192.75 1425.695312 L 1194.285156 1424.980469 L 1195.558594 1414.675781 " fill-opacity="1" fill-rule="evenodd"/></g></g></g></g><g clip-path="url(#86ee0a40a8)"><g clip-path="url(#9d0ee31438)"><g clip-path="url(#d519b0d3a0)"><g clip-path="url(#817380f63a)"><path fill="#e4a91d" d="M 1199.453125 1394.34375 C 1196.265625 1394.40625 1193.746094 1396.902344 1193.816406 1399.910156 C 1193.878906 1402.914062 1196.515625 1405.292969 1199.703125 1405.226562 C 1202.886719 1405.152344 1205.417969 1402.660156 1205.347656 1399.652344 C 1205.277344 1396.644531 1202.648438 1394.269531 1199.453125 1394.34375 " fill-opacity="1" fill-rule="evenodd"/></g></g></g></g></svg>